<svg xmlns="http://www.w3.org/2000/svg" width="21" height="12" viewBox="0 0 21 12" fill="none">
<path d="M8.16667 10.416C8.16667 10.939 8.59061 11.3629 9.11357 11.3629H11.8864C12.4094 11.3629 12.8333 10.939 12.8333 10.416C12.8333 9.89303 12.4094 9.46908 11.8864 9.46908H9.11357C8.59061 9.46908 8.16667 9.89303 8.16667 10.416ZM0.946909 0C0.423946 0 0 0.423945 0 0.946908C0 1.46987 0.423945 1.89382 0.946909 1.89382H20.0531C20.5761 1.89382 21 1.46987 21 0.946908C21 0.423945 20.5761 0 20.0531 0H0.946909ZM3.5 5.68145C3.5 6.20441 3.92395 6.62836 4.44691 6.62836H16.5531C17.0761 6.62836 17.5 6.20441 17.5 5.68145C17.5 5.15849 17.0761 4.73454 16.5531 4.73454H4.44691C3.92395 4.73454 3.5 5.15849 3.5 5.68145Z" fill="black" fill-opacity="0.75"/>
</svg>